<mxfile host="drawio-plugin" modified="2021-07-09T13:40:43.666Z" agent="5.0 (Windows NT 6.2; Win64; x64) AppleWebKit/537.36 (KHTML, like Gecko) Chrome/89.0.4389.90 Safari/537.36" etag="n2L_5ozdl7qm1O7hIt0q" version="14.7.4" type="embed"><diagram id="23iRSUPoRavnBvh4doch" name="Page-1"><mxGraphModel dx="925" dy="666" grid="0" gridSize="10" guides="1" tooltips="1" connect="1" arrows="1" fold="1" page="1" pageScale="1" pageWidth="1200" pageHeight="1920" math="1" shadow="0"><root><object label="" id="0"><mxCell/></object><mxCell id="1" parent="0"/><mxCell id="37" value="" style="shape=table;html=1;whiteSpace=wrap;startSize=0;container=1;collapsible=0;childLayout=tableLayout;" parent="1" vertex="1"><mxGeometry x="200" y="425" width="530" height="50" as="geometry"/></mxCell><mxCell id="38" value="" style="shape=partialRectangle;html=1;whiteSpace=wrap;collapsible=0;dropTarget=0;pointerEvents=0;fillColor=none;top=0;left=0;bottom=0;right=0;points=[[0,0.5],[1,0.5]];portConstraint=eastwest;" parent="37" vertex="1"><mxGeometry width="530" height="17" as="geometry"/></mxCell><mxCell id="39" value="0" style="shape=partialRectangle;html=1;whiteSpace=wrap;connectable=0;overflow=hidden;fillColor=none;top=0;left=0;bottom=0;right=0;" parent="38" vertex="1"><mxGeometry width="45" height="17" as="geometry"/></mxCell><mxCell id="40" value="1" style="shape=partialRectangle;html=1;whiteSpace=wrap;connectable=0;overflow=hidden;fillColor=none;top=0;left=0;bottom=0;right=0;" parent="38" vertex="1"><mxGeometry x="45" width="43" height="17" as="geometry"/></mxCell><mxCell id="41" value="2" style="shape=partialRectangle;html=1;whiteSpace=wrap;connectable=0;overflow=hidden;fillColor=none;top=0;left=0;bottom=0;right=0;" parent="38" vertex="1"><mxGeometry x="88" width="45" height="17" as="geometry"/></mxCell><mxCell id="42" value="3" style="shape=partialRectangle;html=1;whiteSpace=wrap;connectable=0;overflow=hidden;fillColor=none;top=0;left=0;bottom=0;right=0;" parent="38" vertex="1"><mxGeometry x="133" width="44" height="17" as="geometry"/></mxCell><mxCell id="43" value="4" style="shape=partialRectangle;html=1;whiteSpace=wrap;connectable=0;overflow=hidden;fillColor=none;top=0;left=0;bottom=0;right=0;" parent="38" vertex="1"><mxGeometry x="177" width="44" height="17" as="geometry"/></mxCell><mxCell id="44" value="5" style="shape=partialRectangle;html=1;whiteSpace=wrap;connectable=0;overflow=hidden;fillColor=none;top=0;left=0;bottom=0;right=0;" parent="38" vertex="1"><mxGeometry x="221" width="44" height="17" as="geometry"/></mxCell><mxCell id="45" value="6" style="shape=partialRectangle;html=1;whiteSpace=wrap;connectable=0;overflow=hidden;fillColor=none;top=0;left=0;bottom=0;right=0;" parent="38" vertex="1"><mxGeometry x="265" width="45" height="17" as="geometry"/></mxCell><mxCell id="46" value="7" style="shape=partialRectangle;html=1;whiteSpace=wrap;connectable=0;overflow=hidden;fillColor=none;top=0;left=0;bottom=0;right=0;" parent="38" vertex="1"><mxGeometry x="310" width="43" height="17" as="geometry"/></mxCell><mxCell id="47" value="8" style="shape=partialRectangle;html=1;whiteSpace=wrap;connectable=0;overflow=hidden;fillColor=none;top=0;left=0;bottom=0;right=0;" parent="38" vertex="1"><mxGeometry x="353" width="45" height="17" as="geometry"/></mxCell><mxCell id="48" value="9" style="shape=partialRectangle;html=1;whiteSpace=wrap;connectable=0;overflow=hidden;fillColor=none;top=0;left=0;bottom=0;right=0;" parent="38" vertex="1"><mxGeometry x="398" width="44" height="17" as="geometry"/></mxCell><mxCell id="49" value="10" style="shape=partialRectangle;html=1;whiteSpace=wrap;connectable=0;overflow=hidden;fillColor=none;top=0;left=0;bottom=0;right=0;" parent="38" vertex="1"><mxGeometry x="442" width="44" height="17" as="geometry"/></mxCell><mxCell id="50" value="11" style="shape=partialRectangle;html=1;whiteSpace=wrap;connectable=0;overflow=hidden;fillColor=none;top=0;left=0;bottom=0;right=0;" parent="38" vertex="1"><mxGeometry x="486" width="44" height="17" as="geometry"/></mxCell><mxCell id="51" value="" style="shape=partialRectangle;html=1;whiteSpace=wrap;collapsible=0;dropTarget=0;pointerEvents=0;fillColor=none;top=0;left=0;bottom=0;right=0;points=[[0,0.5],[1,0.5]];portConstraint=eastwest;" parent="37" vertex="1"><mxGeometry y="17" width="530" height="33" as="geometry"/></mxCell><mxCell id="52" value="0" style="shape=partialRectangle;html=1;whiteSpace=wrap;connectable=0;overflow=hidden;fillColor=none;top=0;left=0;bottom=0;right=0;" parent="51" vertex="1"><mxGeometry width="45" height="33" as="geometry"/></mxCell><mxCell id="53" value="0" style="shape=partialRectangle;html=1;whiteSpace=wrap;connectable=0;overflow=hidden;fillColor=none;top=0;left=0;bottom=0;right=0;" parent="51" vertex="1"><mxGeometry x="45" width="43" height="33" as="geometry"/></mxCell><mxCell id="54" value="0" style="shape=partialRectangle;html=1;whiteSpace=wrap;connectable=0;overflow=hidden;fillColor=none;top=0;left=0;bottom=0;right=0;" parent="51" vertex="1"><mxGeometry x="88" width="45" height="33" as="geometry"/></mxCell><mxCell id="55" value="0" style="shape=partialRectangle;html=1;whiteSpace=wrap;connectable=0;overflow=hidden;fillColor=none;top=0;left=0;bottom=0;right=0;" parent="51" vertex="1"><mxGeometry x="133" width="44" height="33" as="geometry"/></mxCell><mxCell id="56" value="0" style="shape=partialRectangle;html=1;whiteSpace=wrap;connectable=0;overflow=hidden;fillColor=none;top=0;left=0;bottom=0;right=0;" parent="51" vertex="1"><mxGeometry x="177" width="44" height="33" as="geometry"/></mxCell><mxCell id="57" value="12" style="shape=partialRectangle;html=1;whiteSpace=wrap;connectable=0;overflow=hidden;fillColor=none;top=0;left=0;bottom=0;right=0;" parent="51" vertex="1"><mxGeometry x="221" width="44" height="33" as="geometry"/></mxCell><mxCell id="58" value="12" style="shape=partialRectangle;html=1;whiteSpace=wrap;connectable=0;overflow=hidden;fillColor=none;top=0;left=0;bottom=0;right=0;" parent="51" vertex="1"><mxGeometry x="265" width="45" height="33" as="geometry"/></mxCell><mxCell id="59" value="12" style="shape=partialRectangle;html=1;whiteSpace=wrap;connectable=0;overflow=hidden;fillColor=none;top=0;left=0;bottom=0;right=0;" parent="51" vertex="1"><mxGeometry x="310" width="43" height="33" as="geometry"/></mxCell><mxCell id="60" value="12" style="shape=partialRectangle;html=1;whiteSpace=wrap;connectable=0;overflow=hidden;fillColor=none;top=0;left=0;bottom=0;right=0;" parent="51" vertex="1"><mxGeometry x="353" width="45" height="33" as="geometry"/></mxCell><mxCell id="61" value="12" style="shape=partialRectangle;html=1;whiteSpace=wrap;connectable=0;overflow=hidden;fillColor=none;top=0;left=0;bottom=0;right=0;" parent="51" vertex="1"><mxGeometry x="398" width="44" height="33" as="geometry"/></mxCell><mxCell id="62" value="24" style="shape=partialRectangle;html=1;whiteSpace=wrap;connectable=0;overflow=hidden;fillColor=none;top=0;left=0;bottom=0;right=0;" parent="51" vertex="1"><mxGeometry x="442" width="44" height="33" as="geometry"/></mxCell><mxCell id="63" value="24" style="shape=partialRectangle;html=1;whiteSpace=wrap;connectable=0;overflow=hidden;fillColor=none;top=0;left=0;bottom=0;right=0;" parent="51" vertex="1"><mxGeometry x="486" width="44" height="33" as="geometry"/></mxCell><mxCell id="65" value="dy" style="text;html=1;align=center;verticalAlign=middle;resizable=0;points=[];autosize=1;strokeColor=none;fontSize=16;fontFamily=Jetbrains Mono;" parent="1" vertex="1"><mxGeometry x="160" y="445" width="30" height="20" as="geometry"/></mxCell><mxCell id="66" value="dy[j]:가방에 무게 j 만큼 담을 수 있을 때 보석의 최대가치" style="text;html=1;align=center;verticalAlign=middle;resizable=0;points=[];autosize=1;strokeColor=none;fontSize=16;fontFamily=Jetbrains Mono;" parent="1" vertex="1"><mxGeometry x="150" y="515" width="490" height="20" as="geometry"/></mxCell><mxCell id="81" value="" style="shape=table;html=1;whiteSpace=wrap;startSize=0;container=1;collapsible=0;childLayout=tableLayout;" parent="1" vertex="1"><mxGeometry x="191" y="260" width="210" height="60" as="geometry"/></mxCell><mxCell id="82" value="" style="shape=partialRectangle;html=1;whiteSpace=wrap;collapsible=0;dropTarget=0;pointerEvents=0;fillColor=none;top=0;left=0;bottom=0;right=0;points=[[0,0.5],[1,0.5]];portConstraint=eastwest;" parent="81" vertex="1"><mxGeometry width="210" height="30" as="geometry"/></mxCell><mxCell id="83" value="5" style="shape=partialRectangle;html=1;whiteSpace=wrap;connectable=0;overflow=hidden;fillColor=none;top=0;left=0;bottom=0;right=0;" parent="82" vertex="1"><mxGeometry width="53" height="30" as="geometry"/></mxCell><mxCell id="84" value="3" style="shape=partialRectangle;html=1;whiteSpace=wrap;connectable=0;overflow=hidden;fillColor=none;top=0;left=0;bottom=0;right=0;" parent="82" vertex="1"><mxGeometry x="53" width="52" height="30" as="geometry"/></mxCell><mxCell id="85" value="6" style="shape=partialRectangle;html=1;whiteSpace=wrap;connectable=0;overflow=hidden;fillColor=none;top=0;left=0;bottom=0;right=0;" parent="82" vertex="1"><mxGeometry x="105" width="53" height="30" as="geometry"/></mxCell><mxCell id="86" value="4" style="shape=partialRectangle;html=1;whiteSpace=wrap;connectable=0;overflow=hidden;fillColor=none;top=0;left=0;bottom=0;right=0;" parent="82" vertex="1"><mxGeometry x="158" width="52" height="30" as="geometry"/></mxCell><mxCell id="87" value="" style="shape=partialRectangle;html=1;whiteSpace=wrap;collapsible=0;dropTarget=0;pointerEvents=0;fillColor=none;top=0;left=0;bottom=0;right=0;points=[[0,0.5],[1,0.5]];portConstraint=eastwest;" parent="81" vertex="1"><mxGeometry y="30" width="210" height="30" as="geometry"/></mxCell><mxCell id="88" value="12" style="shape=partialRectangle;html=1;whiteSpace=wrap;connectable=0;overflow=hidden;fillColor=none;top=0;left=0;bottom=0;right=0;" parent="87" vertex="1"><mxGeometry width="53" height="30" as="geometry"/></mxCell><mxCell id="89" value="8" style="shape=partialRectangle;html=1;whiteSpace=wrap;connectable=0;overflow=hidden;fillColor=none;top=0;left=0;bottom=0;right=0;" parent="87" vertex="1"><mxGeometry x="53" width="52" height="30" as="geometry"/></mxCell><mxCell id="90" value="14" style="shape=partialRectangle;html=1;whiteSpace=wrap;connectable=0;overflow=hidden;fillColor=none;top=0;left=0;bottom=0;right=0;" parent="87" vertex="1"><mxGeometry x="105" width="53" height="30" as="geometry"/></mxCell><mxCell id="91" value="8" style="shape=partialRectangle;html=1;whiteSpace=wrap;connectable=0;overflow=hidden;fillColor=none;top=0;left=0;bottom=0;right=0;" parent="87" vertex="1"><mxGeometry x="158" width="52" height="30" as="geometry"/></mxCell><mxCell id="92" value="w" style="text;html=1;align=center;verticalAlign=middle;resizable=0;points=[];autosize=1;strokeColor=none;fontSize=16;fontFamily=Jetbrains Mono;" parent="1" vertex="1"><mxGeometry x="150" y="264" width="30" height="20" as="geometry"/></mxCell><mxCell id="93" value="v" style="text;html=1;align=center;verticalAlign=middle;resizable=0;points=[];autosize=1;strokeColor=none;fontSize=16;fontFamily=Jetbrains Mono;" parent="1" vertex="1"><mxGeometry x="150" y="293" width="30" height="20" as="geometry"/></mxCell><mxCell id="94" value="" style="shape=flexArrow;endArrow=classic;html=1;fontFamily=Jetbrains Mono;fontSource=https%3A%2F%2Ffonts.googleapis.com%2Fcss%3Ffamily%3DJetbrains%2BMono;fontSize=16;endWidth=8.275862068965518;endSize=3.8068965517241375;" parent="1" edge="1"><mxGeometry width="50" height="50" relative="1" as="geometry"><mxPoint x="220" y="360" as="sourcePoint"/><mxPoint x="220" y="330" as="targetPoint"/></mxGeometry></mxCell><mxCell id="99" style="edgeStyle=orthogonalEdgeStyle;curved=0;rounded=1;sketch=0;orthogonalLoop=1;jettySize=auto;html=1;fontFamily=Jetbrains Mono;fontSource=https%3A%2F%2Ffonts.googleapis.com%2Fcss%3Ffamily%3DJetbrains%2BMono;fontSize=16;" parent="1" source="95" edge="1"><mxGeometry relative="1" as="geometry"><mxPoint x="620" y="575" as="targetPoint"/></mxGeometry></mxCell><mxCell id="95" value="1) backs[0] : 무게가 5인 구슬만 담는다고 가정" style="text;html=1;align=center;verticalAlign=middle;resizable=0;points=[];autosize=1;strokeColor=none;fontSize=16;fontFamily=Jetbrains Mono;" parent="1" vertex="1"><mxGeometry x="150" y="565" width="410" height="20" as="geometry"/></mxCell><mxCell id="96" value="backs" style="text;html=1;align=center;verticalAlign=middle;resizable=0;points=[];autosize=1;strokeColor=none;fontSize=16;fontFamily=Jetbrains Mono;" parent="1" vertex="1"><mxGeometry x="135" y="220" width="60" height="20" as="geometry"/></mxCell><mxCell id="100" value="dy[j] = max(dy[j-w] + v, dy[j])" style="text;html=1;align=center;verticalAlign=middle;resizable=0;points=[];autosize=1;strokeColor=none;fontSize=16;fontFamily=Jetbrains Mono;" parent="1" vertex="1"><mxGeometry x="630" y="565" width="310" height="20" as="geometry"/></mxCell><mxCell id="103" value="(1)" style="text;html=1;align=center;verticalAlign=middle;resizable=0;points=[];autosize=1;strokeColor=none;fontSize=16;fontFamily=Jetbrains Mono;" parent="1" vertex="1"><mxGeometry x="201" y="365" width="39" height="22" as="geometry"/></mxCell><mxCell id="104" value="" style="shape=flexArrow;endArrow=classic;html=1;fontFamily=Jetbrains Mono;fontSource=https%3A%2F%2Ffonts.googleapis.com%2Fcss%3Ffamily%3DJetbrains%2BMono;fontSize=16;endWidth=8.275862068965518;endSize=3.8068965517241375;" parent="1" edge="1"><mxGeometry width="50" height="50" relative="1" as="geometry"><mxPoint x="271" y="359.9999999999999" as="sourcePoint"/><mxPoint x="271" y="329.9999999999999" as="targetPoint"/></mxGeometry></mxCell><mxCell id="105" value="(2)" style="text;html=1;align=center;verticalAlign=middle;resizable=0;points=[];autosize=1;strokeColor=none;fontSize=16;fontFamily=Jetbrains Mono;" parent="1" vertex="1"><mxGeometry x="252" y="365" width="39" height="22" as="geometry"/></mxCell><mxCell id="106" value="" style="shape=flexArrow;endArrow=classic;html=1;fontFamily=Jetbrains Mono;fontSource=https%3A%2F%2Ffonts.googleapis.com%2Fcss%3Ffamily%3DJetbrains%2BMono;fontSize=16;endWidth=8.275862068965518;endSize=3.8068965517241375;" parent="1" edge="1"><mxGeometry width="50" height="50" relative="1" as="geometry"><mxPoint x="324" y="359.9999999999999" as="sourcePoint"/><mxPoint x="324" y="329.9999999999999" as="targetPoint"/></mxGeometry></mxCell><mxCell id="107" value="(3)" style="text;html=1;align=center;verticalAlign=middle;resizable=0;points=[];autosize=1;strokeColor=none;fontSize=16;fontFamily=Jetbrains Mono;" parent="1" vertex="1"><mxGeometry x="306" y="365" width="39" height="22" as="geometry"/></mxCell><mxCell id="108" value="" style="shape=flexArrow;endArrow=classic;html=1;fontFamily=Jetbrains Mono;fontSource=https%3A%2F%2Ffonts.googleapis.com%2Fcss%3Ffamily%3DJetbrains%2BMono;fontSize=16;endWidth=8.275862068965518;endSize=3.8068965517241375;" parent="1" edge="1"><mxGeometry width="50" height="50" relative="1" as="geometry"><mxPoint x="378" y="359.9999999999999" as="sourcePoint"/><mxPoint x="378" y="329.9999999999999" as="targetPoint"/></mxGeometry></mxCell><mxCell id="109" value="(4)" style="text;html=1;align=center;verticalAlign=middle;resizable=0;points=[];autosize=1;strokeColor=none;fontSize=16;fontFamily=Jetbrains Mono;" parent="1" vertex="1"><mxGeometry x="360" y="365" width="39" height="22" as="geometry"/></mxCell><mxCell id="114" value="n" style="text;html=1;align=center;verticalAlign=middle;resizable=0;points=[];autosize=1;strokeColor=none;" vertex="1" parent="1"><mxGeometry x="368" y="233" width="16" height="18" as="geometry"/></mxCell><mxCell id="119" value="" style="rounded=1;whiteSpace=wrap;html=1;fillColor=none;" vertex="1" parent="1"><mxGeometry x="421" y="410" width="316" height="75" as="geometry"/></mxCell><mxCell id="123" value="w" style="text;html=1;align=center;verticalAlign=middle;resizable=0;points=[];autosize=1;strokeColor=none;" vertex="1" parent="1"><mxGeometry x="436.5" y="389" width="19" height="18" as="geometry"/></mxCell><mxCell id="124" value="m" style="text;html=1;align=center;verticalAlign=middle;resizable=0;points=[];autosize=1;strokeColor=none;" vertex="1" parent="1"><mxGeometry x="701.5" y="387" width="20" height="18" as="geometry"/></mxCell></root></mxGraphModel></diagram></mxfile>